<?xml version="1.0" encoding="UTF-8"?>
<svg id="Layer_1" data-name="Layer 1" xmlns="http://www.w3.org/2000/svg" viewBox="0 0 480.29 485.88">
  <defs>
    <style>
      .cls-1 {
        fill: #162035;
      }

      .cls-2, .cls-3 {
        fill: none;
      }

      .cls-2, .cls-3, .cls-4 {
        stroke-linecap: round;
        stroke-linejoin: round;
      }

      .cls-2, .cls-4 {
        stroke: #f7f7f9;
        stroke-width: 2.37px;
      }

      .cls-3 {
        stroke: #715623;
        stroke-width: 4.75px;
      }

      .cls-4 {
        fill: #fff;
      }
    </style>
  </defs>
  <g id="Generative_Object" data-name="Generative Object">
    <path class="cls-1" d="M227.83,5.31c206.79-9.52,328.42,229.83,196.35,389.73-106.25,128.64-310.32,109.27-391.51-35.59C-52.83,206.9,54.23,13.31,227.83,5.31Z"/>
    <g>
      <path class="cls-3" d="M226.54,2.86c316.5-17.89,343.63,462.27,27.18,480.16C-62.76,500.92-89.84,20.75,226.54,2.86Z"/>
      <path class="cls-4" d="M257.06,81.12c8.9-17.45-41.71-12.8-34.4,1.6"/>
      <path class="cls-4" d="M278.71,132.08c-54.93.22-97.11-12.77-154.42,31.5l-1.93-1.33c10.89-25.71,86.37-69.59,101.14-78.46s36.1,1.57,55.21.84"/>
      <path class="cls-4" d="M278.71,131.58c6.52,3.15,10.01,11.85,16.61,14.24,2.51.91,50.87.87,53.39,0,2.75-.95,2.61-.81,3.56-3.56,1.17-3.39,1.38-69.43-1.42-71.66-11.65,1.16-46.58-3.92-55.52-.71-6.49,2.32-8.93,11.96-16.61,14.24"/>
      <line class="cls-2" x1="278.71" y1="84.12" x2="278.71" y2="131.58"/>
      <line class="cls-4" x1="224.13" y1="130.77" x2="224.13" y2="263.27"/>
      <path class="cls-4" d="M256.16,130.77v136.27"/>
      <path class="cls-4" d="M224.13,265.64c-4.68.92-10.98,2.66-11.86,8.3,5.23,24.19-7.07,114.9.47,131.69,6.11,13.59,46.37,12.87,53.63,3.56,7.78-10,.32-116.41,2.37-136.44-1.94-7.7-39.61-8.1-44.61-7.12Z"/>
    </g>
  </g>
  <rect class="cls-4" x="224.13" y="128.46" width="32.03" height="138.59"/>
</svg>