<svg xmlns="http://www.w3.org/2000/svg" viewBox="0 0 32 32">
  <defs>
    <linearGradient id="gradient" x1="0%" y1="0%" x2="100%" y2="100%">
      <stop offset="0%" style="stop-color:#f59e0b"/>
      <stop offset="100%" style="stop-color:#d97706"/>
    </linearGradient>
  </defs>
  <rect width="32" height="32" rx="7" fill="url(#gradient)"/>
  <path 
    d="M9 11a1.5 1.5 0 011.5-1.5h2.46a.75.75 0 01.71.513l1.124 3.37a.75.75 0 01-.376.907l-1.693.847a8.281 8.281 0 004.137 4.137l.847-1.693a.75.75 0 01.908-.376l3.37 1.124a.75.75 0 01.512.712V21.5a1.5 1.5 0 01-1.5 1.5h-.75C14.787 23 9 17.213 9 10.75V11z" 
    fill="none" 
    stroke="white" 
    stroke-width="1.8" 
    stroke-linecap="round" 
    stroke-linejoin="round"
  />
</svg>

